# xmcd
#
# Track frame offsets:
#	150
#	11354
#	21789
#	30242
#	43006
#	50228
#	62745
#	76996
#	89469
#	99958
#	114411
#	123480
#	138350
#	149683
#
# Disc length: 2087 seconds
#
# Revision: 1
# Processed by: cddbd v1.4PL0 Copyright (c) Steve Scherf et al.
# Submitted via: audiograbber 1.81.03
#
DISCID=b608250e
DTITLE=Choeur Montjoie Saint Denis - Chant d'Europe I
DYEAR=1900
DGENRE=
TTITLE0=Les dragons de Noailles
TTITLE1=Le combat de Demain
TTITLE2=Les cuirassiers
TTITLE3=Sur la route
TTITLE4=Les lansquenets
TTITLE5=Les cosaques
TTITLE6=La blanche hermine
TTITLE7=Les partisans blancs
TTITLE8=Les chacals
TTITLE9=Le Kyrie des gueux
TTITLE10=Nous sommes de la Légion
TTITLE11=Le chant du marais
TTITLE12=En avant parcourant le monde
TTITLE13=Les bérets verts
EXTD=
EXTT0=
EXTT1=
EXTT2=
EXTT3=
EXTT4=
EXTT5=
EXTT6=
EXTT7=
EXTT8=
EXTT9=
EXTT10=
EXTT11=
EXTT12=
EXTT13=
PLAYORDER=
